<svg xmlns="http://www.w3.org/2000/svg" viewBox="0 0 173.68 169.94">
  <defs>
    <style>
      .cls-1 {
        fill: #fff;
      }
    </style>
  </defs>
  <title>Asset 5</title>
  <g id="Layer_2" data-name="Layer 2">
    <g id="Layer_1-2" data-name="Layer 1">
      <g>
        <rect class="cls-1" x="13.22" y="86.12" width="82.68" height="59.47"/>
        <g>
          <path d="M150.3,107.8a9.64,9.64,0,0,0-6.92-1.75c-2,.36-3.89,1-5.84,1.47-.36.09-1,.07-1.15-.16a5.09,5.09,0,0,0-3.79-1.69l-1.71-.16c.29-1.75.11-2-1.45-2.58a2.47,2.47,0,0,1-1.1-.54c-2.63-1.74-4.64-3.11-4.21-4.08.63-1.38-2.22-1.19-3.91-.35a8.71,8.71,0,0,1,5,4.77c-1.07.34-1.57,0-1.68-1.07a2.33,2.33,0,0,0-.61-1.17,6.75,6.75,0,0,0-3.72-2.16c-.36-.1-.72-.23-1.09-.35l-.58-.2.08-.3.84.07.66,0a1.43,1.43,0,0,1,.67-.68,8.37,8.37,0,0,0,2.27-1.37,4.1,4.1,0,0,1,2.34-1.42c1-.23,2.12-.38,3.16-.63a26.73,26.73,0,0,0,5-1.37,21.57,21.57,0,0,1,8.8-2.26,11.15,11.15,0,0,0,6.7-2.3,4.56,4.56,0,0,0,.34-7.17,8.49,8.49,0,0,0-3.56-1.78c-2.89-.66-6.51,1.52-8.05,4.6-.35.72-.63,1.47-.95,2.21a6,6,0,0,1-5.26,3.85,30.79,30.79,0,0,1-3.33.08,17.17,17.17,0,0,0-7.41,1.44c-1.34.57-2.72,1.06-4.08,1.57-5.35,2-10.09.54-13.91-3.23a33,33,0,0,1-8.09-12.27,59.18,59.18,0,0,1-3.54-14.12,5.19,5.19,0,0,1,.5-2.14c.58-1.51,1.33-3,1.84-4.49.38-1.09.42-2.3.74-3.42.24-.85.85-1.6,1-2.45A41.37,41.37,0,0,1,96,44a6,6,0,0,1,.64-1.36,3.17,3.17,0,0,0-.35-4.34A4.19,4.19,0,0,0,91,37.93a2,2,0,0,0-.84,2.54,14.54,14.54,0,0,0,1.52,2.24c.15,1.81-1.16,3.13-2.2,4.58-.32.45-.65.9-1,1.36a2,2,0,0,0-.13,2.22,3.57,3.57,0,0,1,.19,2.38c-.62,1.8-1.48,3.51-2.24,5.26-.55,1.26-1.26,1.75-2.62,1.44-2.73-.62-5.43-1.37-8.28-2.1,1-.48.62-.9.13-1.2-.67-.41-1.44-.67-2.08-1.11-1.83-1.25-3.17-2.23-5-3.51-.38-.26-.57.34-.58.78a1.47,1.47,0,0,0,0,.21c.09.75.29,1.49.42,2.12-1-.4-1.24-.82-.77-2,.17-.42.31-.85.46-1.28,0,0,0-.07,0-.11v0a27.52,27.52,0,0,0,1.07-11.82,7.32,7.32,0,0,0-1.69-4.17,26.77,26.77,0,0,1-2-2.4A4,4,0,0,0,63,31.71c-.32-.09-.89-.33-.88-.46,0-.36,1-.41.53-1.15l-.79-.54.66-.12c1.34-.29,1.43-.44,1.43-1.82a9.37,9.37,0,0,0-1.59-5,23.42,23.42,0,0,1-3.11-5.87,3.79,3.79,0,0,0-1.32-1.69,2.92,2.92,0,0,1-1.36-2.42A2.55,2.55,0,0,0,55,10.45c-1.62-1-3.15-.25-4.68.13-1.07.26-1.32,1.13-.64,2a11.3,11.3,0,0,0,1.81,1.71,7.68,7.68,0,0,1,2.42,3.62c-1.33-1.43-2.85-3-4.32-4.64a4.12,4.12,0,0,1-.4-5,4.86,4.86,0,0,0,.57-4A2.48,2.48,0,0,0,46,2.66c-2.13,1.12-2.83,4.47-1.18,6.22A13.66,13.66,0,0,1,47.2,13a69.47,69.47,0,0,0,3.57,7.49A76,76,0,0,0,55.51,27a5.21,5.21,0,0,1,1.12,4.49,11.49,11.49,0,0,0-.18,1.45c-.88,8.35-2.7,16.39-7.53,23.48a2,2,0,0,1-1.51,1A56.12,56.12,0,0,0,7.82,84.58a56.59,56.59,0,0,0,13,72.56c12.83,10.43,27.61,14.43,44,12.22a55,55,0,0,0,29.5-13.68A54.88,54.88,0,0,0,112,125.46a4,4,0,0,1,3.47-3.6,217,217,0,0,0,25.73-7.75,16.63,16.63,0,0,1,8.14-1.16,5.87,5.87,0,0,0,1.45,0,1.67,1.67,0,0,0,1.6-2A4,4,0,0,0,150.3,107.8ZM143,80.63c.64-.37,1.33-.37,1.55,0s-.12,1-.76,1.35-1.34.37-1.56,0S142.36,81,143,80.63ZM92.23,38.32c.31-.18.64-.18.75,0s-.06.47-.37.65-.65.18-.75,0S91.92,38.5,92.23,38.32ZM47,4.77c-.46.26-1,.26-1.12,0s.09-.71.55-1,1-.26,1.12,0S47.49,4.5,47,4.77ZM55.56,19c-.25-.48-.37-1-.63-1.5-.43-.79-1-1.52-1.38-2.32a2.58,2.58,0,0,1,.28-2.76c1,1,1.8,1.84,1.77,3.37a19.29,19.29,0,0,0,.64,3.74C55.94,19.26,55.66,19.15,55.56,19Zm7.85,35.12c.24-.13.61.08.85.49s.22.83,0,1-.61-.08-.84-.48S63.18,54.21,63.41,54.07Zm-12,71.32a17.66,17.66,0,0,1-7.3,7.45,23.51,23.51,0,0,1-11.45,2.63c-.54,0-1.81,0-3.83-.09s-3.48-.09-4.4-.09c-3.22,0-5.65.05-7.29.17v-1.18a10.44,10.44,0,0,0,3.08-.46,2.21,2.21,0,0,0,1.32-1.38,10.37,10.37,0,0,0,.36-3.22V100a10.42,10.42,0,0,0-.36-3.22,2.21,2.21,0,0,0-1.32-1.38,10.38,10.38,0,0,0-3.08-.46V93.75c2.11.13,4,.2,5.75.2l1.43,0,8.86-.17q10.38,0,15.56,5.21T54,114.15A24,24,0,0,1,51.45,125.39ZM93.58,94.93a10.38,10.38,0,0,0-3.08.46,2.21,2.21,0,0,0-1.32,1.38,10.37,10.37,0,0,0-.36,3.22v29.23a10.42,10.42,0,0,0,.36,3.22,2.21,2.21,0,0,0,1.32,1.38,10.38,10.38,0,0,0,3.08.46v1.18c-1.84-.11-4.32-.17-7.46-.17-3.37,0-5.87.05-7.52.17v-1.18a10.25,10.25,0,0,0,3.07-.46A2.19,2.19,0,0,0,83,132.44a10.37,10.37,0,0,0,.36-3.22V97.69L69.2,135.76h-1L53.45,97.52a7.33,7.33,0,0,0-3-2.13,10.44,10.44,0,0,0-3.08-.46V93.75c1.28.11,3.1.17,5.45.17,2.07,0,3.74-.06,5-.17l12.91,34.18,12.62-34h2.78c3.14,0,5.62-.06,7.46-.17Zm10.6-1.11c-.18.23-1.28-.31-2.45-1.22s-2-1.83-1.78-2.06,1.28.3,2.45,1.21S104.36,93.58,104.18,93.82Zm28,14.34a4.09,4.09,0,0,1-1.3-.59,1.81,1.81,0,0,1-.93-.06c-.59-.16-1-.49-.94-.72s.59-.28,1.18-.11a1.8,1.8,0,0,1,.81.45,4.15,4.15,0,0,1,1.42.2c.9.26,1.58.65,1.51.88S133.08,108.42,132.18,108.16Zm2.36,7.53a3,3,0,0,1,3-1.44Z"/>
          <path d="M41.35,96.92q-3.57-2.11-9.6-2.11a6.91,6.91,0,0,0-2.75.42,2.32,2.32,0,0,0-1.26,1.48,11,11,0,0,0-.34,3.17v29.46a11.12,11.12,0,0,0,.33,3.16A2.33,2.33,0,0,0,29,134a7.15,7.15,0,0,0,2.8.42c4.17,0,7.43-.76,9.81-2.27a12.05,12.05,0,0,0,5-6.63,35.75,35.75,0,0,0,1.45-11.12,32.53,32.53,0,0,0-1.58-11.06A11.93,11.93,0,0,0,41.35,96.92Z"/>
          <path d="M160.22,105.65a3,3,0,0,0-3.26.16l.49.31-.28.47a10.6,10.6,0,0,1-1.25-.52c-.39-.21-.69-.66-1.09-.76a19,19,0,0,0-7.82-.67,6.75,6.75,0,0,0-1.59.75l.08.32,1,.19a9.42,9.42,0,0,1,2.52.54c1.81,1,3.58,1.84,5.64.93a4.27,4.27,0,0,0,5.65.71A1.43,1.43,0,0,0,160.22,105.65Z"/>
          <path d="M166.32,107.87c-.75,0-1.48.27-1.55,1.19-.06.75,1.13,1.57,2.27,1.55a1.25,1.25,0,0,0,1.29-1.21C168.37,108.59,167.33,107.81,166.32,107.87Z"/>
          <path d="M172.19,106.38c-.56,0-1.1.2-1.15.89s.84,1.16,1.68,1.14c.47,0,.93-.26,1-.89S172.94,106.33,172.19,106.38Z"/>
          <path d="M95.2,31.31c.17,0,.33.38.5.19.44-.47.06-1.16-.14-1.64a2.18,2.18,0,0,0-2-1.5C93.48,29.86,94.18,30.51,95.2,31.31Z"/>
          <path d="M68,51.81l0-.08v0S68,51.77,68,51.81Z"/>
          <path d="M56.17,5.47c.35.5.81.37,1.08-.12a1.82,1.82,0,0,0,.34-1A5,5,0,0,0,55.39.44.79.79,0,0,1,55,1c-.33.2-.7.19-.81,0s.06-.52.4-.71a1,1,0,0,1,.32-.12,1.16,1.16,0,0,0-1.06,0c-.53.38-.31,1.15-.1,1.53A42.77,42.77,0,0,0,56.17,5.47Z"/>
        </g>
      </g>
    </g>
  </g>
</svg>
