<svg xmlns="http://www.w3.org/2000/svg" viewBox="0 0 173.68 167.66">
  <defs>
    <style>
      .cls-1 {
        fill: none;
      }

      .cls-2 {
        fill: #fff;
      }
    </style>
  </defs>
  <title>Asset 4</title>
  <g id="Layer_2" data-name="Layer 2">
    <g id="Layer_1-2" data-name="Layer 1">
      <g>
        <g>
          <path class="cls-1" d="M53.83,10.08a2.58,2.58,0,0,0-.28,2.76c.4.81,1,1.53,1.38,2.32.26.48.38,1,.63,1.51.1.2.38.3.68.52a19.32,19.32,0,0,1-.64-3.73C55.63,11.92,54.8,11.06,53.83,10.08Z"/>
          <path class="cls-1" d="M64.25,53.24c.23-.13.24-.57,0-1s-.61-.62-.85-.48-.24.57,0,1S64,53.38,64.25,53.24Z"/>
          <path class="cls-1" d="M46.46,1.5c-.46.27-.7.7-.55,1s.66.27,1.12,0,.7-.7.55-1S46.92,1.23,46.46,1.5Z"/>
          <path class="cls-1" d="M92.61,36.69c.31-.17.47-.47.37-.65s-.44-.18-.75,0-.48.48-.37.66S92.3,36.87,92.61,36.69Z"/>
          <path class="cls-2" d="M41,95c-2.29-1.35-5.43-2-9.35-2a6.66,6.66,0,0,0-2.54.37,1.85,1.85,0,0,0-1,1.18,10.63,10.63,0,0,0-.32,3V127a10.81,10.81,0,0,0,.31,3,1.78,1.78,0,0,0,1,1.16,6.65,6.65,0,0,0,2.59.38c4,0,7.25-.74,9.54-2.19A11.52,11.52,0,0,0,46.1,123a35.6,35.6,0,0,0,1.42-11A32.16,32.16,0,0,0,46,101.13,11.46,11.46,0,0,0,41,95Z"/>
          <path class="cls-1" d="M143.79,79.71c.64-.37,1-1,.76-1.36s-.91-.38-1.55,0-1,1-.77,1.35S143.15,80.08,143.79,79.71Z"/>
          <path class="cls-1" d="M132.42,105a3.86,3.86,0,0,0-1.42-.19,1.8,1.8,0,0,0-.81-.46c-.59-.16-1.11-.11-1.18.12s.35.55.94.72a1.79,1.79,0,0,0,.93,0,4.09,4.09,0,0,0,1.3.59c.9.26,1.69.29,1.75.06S133.32,105.3,132.42,105Z"/>
          <path class="cls-1" d="M102.4,89.46c-1.17-.9-2.26-1.45-2.45-1.21s.62,1.16,1.78,2.07,2.27,1.45,2.45,1.21S103.56,90.37,102.4,89.46Z"/>
          <path class="cls-1" d="M134.54,113.41l3-1.44A3,3,0,0,0,134.54,113.41Z"/>
          <path class="cls-2" d="M152.37,108.6a4,4,0,0,0-2.07-3.08,9.65,9.65,0,0,0-6.92-1.76c-2,.36-3.89,1-5.84,1.47a1.41,1.41,0,0,1-1.15-.15,5.1,5.1,0,0,0-3.79-1.7c-.57,0-1.13-.1-1.71-.16.29-1.75.11-2-1.45-2.58a2.57,2.57,0,0,1-1.1-.53c-2.63-1.75-4.64-3.11-4.21-4.08.63-1.39-2.22-1.19-3.91-.36a8.74,8.74,0,0,1,5,4.77c-1.07.34-1.57,0-1.68-1.07a2.41,2.41,0,0,0-.61-1.17A6.75,6.75,0,0,0,119.21,96c-.36-.1-.72-.22-1.09-.35l-.58-.2.08-.3.84.07.66,0a1.43,1.43,0,0,1,.67-.68,8.37,8.37,0,0,0,2.27-1.37,4.15,4.15,0,0,1,2.34-1.42c1-.23,2.12-.37,3.16-.63a26,26,0,0,0,5-1.37,21.57,21.57,0,0,1,8.8-2.26,11,11,0,0,0,6.7-2.3,4.56,4.56,0,0,0,.34-7.17,8.49,8.49,0,0,0-3.56-1.78c-2.89-.66-6.51,1.52-8.05,4.61-.35.71-.63,1.47-.95,2.2A6,6,0,0,1,130.58,87a30.79,30.79,0,0,1-3.33.08,17.47,17.47,0,0,0-7.41,1.44c-1.34.58-2.72,1.06-4.08,1.57-5.35,2-10.09.54-13.91-3.22a33.19,33.19,0,0,1-8.09-12.27,59.38,59.38,0,0,1-3.54-14.13,5.22,5.22,0,0,1,.5-2.14c.58-1.5,1.33-3,1.84-4.48.38-1.1.42-2.31.74-3.43.24-.85.85-1.6,1-2.45A41.67,41.67,0,0,1,96,41.66a6,6,0,0,1,.64-1.35A3.18,3.18,0,0,0,96.26,36,4.19,4.19,0,0,0,91,35.65a2,2,0,0,0-.84,2.53,14.07,14.07,0,0,0,1.52,2.24c.15,1.82-1.16,3.14-2.2,4.58-.32.46-.65.9-1,1.36a2,2,0,0,0-.13,2.23A3.56,3.56,0,0,1,88.55,51c-.62,1.79-1.48,3.51-2.24,5.25-.55,1.26-1.26,1.75-2.62,1.44C81,57,78.26,56.29,75.41,55.57c1-.49.62-.91.13-1.21-.67-.41-1.44-.67-2.08-1.11-1.83-1.25-3.17-2.23-5-3.51-.38-.26-.57.34-.58.78a1.47,1.47,0,0,0,0,.21c.09.75.29,1.49.42,2.12-1-.4-1.24-.81-.77-2,.17-.43.31-.86.46-1.29,0,0,0-.07,0-.1v0a27.49,27.49,0,0,0,1.07-11.82,7.32,7.32,0,0,0-1.69-4.17,25.43,25.43,0,0,1-2-2.4A4,4,0,0,0,63,29.42c-.32-.08-.89-.33-.88-.45,0-.37,1-.42.53-1.15l-.79-.54.66-.13c1.34-.29,1.43-.44,1.43-1.82a9.37,9.37,0,0,0-1.59-5,23.36,23.36,0,0,1-3.11-5.86,3.73,3.73,0,0,0-1.32-1.69,3,3,0,0,1-1.36-2.42A2.57,2.57,0,0,0,55,8.16c-1.62-1-3.15-.25-4.68.13-1.07.26-1.32,1.13-.64,2A10.82,10.82,0,0,0,51.52,12a7.68,7.68,0,0,1,2.42,3.62c-1.33-1.42-2.85-3-4.32-4.64a4.12,4.12,0,0,1-.4-5,4.85,4.85,0,0,0,.57-4A2.48,2.48,0,0,0,46,.37c-2.13,1.12-2.83,4.47-1.18,6.22a13.78,13.78,0,0,1,2.36,4.12,69.62,69.62,0,0,0,3.57,7.5,77.5,77.5,0,0,0,4.74,6.46,5.22,5.22,0,0,1,1.12,4.49,12,12,0,0,0-.18,1.45C55.57,39,53.75,47,48.92,54.09a2,2,0,0,1-1.51,1A56.12,56.12,0,0,0,7.82,82.29a56.59,56.59,0,0,0,13,72.56c12.83,10.43,27.61,14.43,44,12.22a55,55,0,0,0,29.5-13.68A54.88,54.88,0,0,0,112,123.17a4,4,0,0,1,3.47-3.59,220.83,220.83,0,0,0,25.73-7.75,16.53,16.53,0,0,1,8.14-1.17,5.42,5.42,0,0,0,1.45,0A1.67,1.67,0,0,0,152.37,108.6ZM143,78.34c.64-.37,1.33-.36,1.55,0s-.12,1-.76,1.36-1.34.36-1.56,0S142.36,78.71,143,78.34ZM92.23,36c.31-.17.64-.17.75,0s-.06.48-.37.65-.65.18-.75,0S91.92,36.21,92.23,36ZM47,2.48c-.46.26-1,.26-1.12,0s.09-.7.55-1,1-.26,1.12,0S47.49,2.21,47,2.48Zm8.53,14.19c-.25-.48-.37-1-.63-1.51-.43-.79-1-1.51-1.38-2.32a2.58,2.58,0,0,1,.28-2.76c1,1,1.8,1.84,1.77,3.38a19.32,19.32,0,0,0,.64,3.73C55.94,17,55.66,16.87,55.56,16.67Zm7.85,35.12c.24-.14.61.08.85.48s.22.84,0,1-.61-.08-.84-.48S63.18,51.92,63.41,51.79ZM51.84,123.27a18.3,18.3,0,0,1-7.51,7.66,24.18,24.18,0,0,1-11.69,2.69q-.81,0-3.84-.09c-2-.06-3.47-.09-4.39-.09-3.32,0-5.69.06-7.25.17l-.54,0v-2.2l.48,0A10,10,0,0,0,20,131a1.7,1.7,0,0,0,1-1.08,10,10,0,0,0,.33-3V97.64a10,10,0,0,0-.33-3,1.7,1.7,0,0,0-1-1.08,10,10,0,0,0-2.92-.43l-.48,0V90.87l.53,0c2.17.14,4,.2,5.72.2l1.42,0,8.87-.17c7,0,12.38,1.8,15.92,5.36S54.4,105,54.4,111.8A24.64,24.64,0,0,1,51.84,123.27ZM94,93.06l-.48,0a10,10,0,0,0-2.92.43,1.7,1.7,0,0,0-1,1.08,10,10,0,0,0-.33,3v29.23a10,10,0,0,0,.33,3,1.7,1.7,0,0,0,1,1.08,10,10,0,0,0,2.92.43l.48,0v2.19l-.53,0c-1.88-.11-4.38-.17-7.43-.17-3.47,0-5.91.06-7.48.17l-.54,0v-2.2l.48,0a9.85,9.85,0,0,0,2.91-.43,1.67,1.67,0,0,0,1-1.08,10,10,0,0,0,.33-3V98.12L69.49,133.91H67.85L53,95.42a7,7,0,0,0-2.76-1.91,10.13,10.13,0,0,0-2.93-.43l-.48,0v-2.2l.54,0c1.31.11,3.13.17,5.41.17,2,0,3.67-.06,5-.17l.38,0,12.57,33.28L82.93,91.07h3.13c3,0,5.55-.06,7.43-.17l.53,0Zm10.16-1.53c-.18.24-1.28-.31-2.45-1.21s-2-1.84-1.78-2.07,1.28.31,2.45,1.21S104.36,91.3,104.18,91.53Zm28,14.34a4.09,4.09,0,0,1-1.3-.59,1.79,1.79,0,0,1-.93,0c-.59-.17-1-.49-.94-.72s.59-.28,1.18-.12a1.8,1.8,0,0,1,.81.46,3.86,3.86,0,0,1,1.42.19c.9.26,1.58.66,1.51.89S133.08,106.13,132.18,105.87Zm2.36,7.54a3,3,0,0,1,3-1.44Z"/>
        </g>
        <path class="cls-2" d="M160.22,103.36a2.94,2.94,0,0,0-3.26.17l.49.31-.28.46a12.57,12.57,0,0,1-1.25-.51c-.39-.22-.69-.66-1.09-.77a18.81,18.81,0,0,0-7.82-.66,6.7,6.7,0,0,0-1.59.74l.08.32,1,.19a9.82,9.82,0,0,1,2.52.54c1.81,1,3.58,1.85,5.64.93a4.27,4.27,0,0,0,5.65.71A1.43,1.43,0,0,0,160.22,103.36Z"/>
        <path class="cls-2" d="M166.32,105.59c-.75,0-1.48.26-1.55,1.18-.06.75,1.13,1.57,2.27,1.55.63-.07,1.25-.35,1.29-1.2S167.33,105.52,166.32,105.59Z"/>
        <path class="cls-2" d="M172.19,104.1c-.56,0-1.1.19-1.15.88s.84,1.16,1.68,1.15c.47-.06.93-.27,1-.9S172.94,104.05,172.19,104.1Z"/>
      </g>
    </g>
  </g>
</svg>
