<svg id="Layer_1" data-name="Layer 1" xmlns="http://www.w3.org/2000/svg" viewBox="0 0 226.77 220.85">
  <defs>
    <style>
      .cls-1, .cls-2, .cls-3, .cls-4 {
        isolation: isolate;
      }

      .cls-2, .cls-3, .cls-4 {
        font-size: 8.22px;
        fill: #9d9d9c;
        font-family: GillSans-Light, Gill Sans;
        font-weight: 300;
      }

      .cls-2 {
        letter-spacing: 0.38em;
      }

      .cls-3 {
        letter-spacing: 0.38em;
      }

      .cls-5 {
        fill: none;
      }
    </style>
  </defs>
  <title>Dirty Martini Logo flat</title>
  <g>
    <g>
      <path d="M45.09,191.77a5.24,5.24,0,0,1,1.21,3.74,6.18,6.18,0,0,1-.59,2.77A4.31,4.31,0,0,1,44,200.12a5.29,5.29,0,0,1-2.68.65h-.8l-1.13,0c-.75,0-1.33,0-1.71,0v-.29a2.51,2.51,0,0,0,.72-.12.51.51,0,0,0,.31-.33,2.59,2.59,0,0,0,.08-.8V192a3,3,0,0,0-.08-.8.49.49,0,0,0-.31-.33,2.51,2.51,0,0,0-.72-.12v-.29c.32,0,.77,0,1.34,0h1.17l1.26,0A4.76,4.76,0,0,1,45.09,191.77Zm-4.64-.92a.61.61,0,0,0-.3.36,2.61,2.61,0,0,0-.08.78v7.26a2.94,2.94,0,0,0,.08.78.52.52,0,0,0,.3.36,1.57,1.57,0,0,0,.66.1,4.14,4.14,0,0,0,2.3-.56,3,3,0,0,0,1.18-1.63,9.19,9.19,0,0,0,.34-2.75,8.22,8.22,0,0,0-.37-2.72,3,3,0,0,0-1.21-1.58,4.23,4.23,0,0,0-2.26-.52A1.86,1.86,0,0,0,40.45,190.85Z"/>
      <path d="M53.93,190.78a2.51,2.51,0,0,0-.72.12.51.51,0,0,0-.31.33,2.59,2.59,0,0,0-.08.8v7.2a3,3,0,0,0,.08.8.49.49,0,0,0,.31.33,2.51,2.51,0,0,0,.72.12v.29c-.42,0-1,0-1.75,0s-1.38,0-1.77,0v-.29a2.51,2.51,0,0,0,.72-.12.51.51,0,0,0,.31-.33,2.59,2.59,0,0,0,.08-.8V192a3,3,0,0,0-.08-.8.49.49,0,0,0-.31-.33,2.51,2.51,0,0,0-.72-.12v-.29c.39,0,1,0,1.77,0s1.32,0,1.75,0Z"/>
      <path d="M66.51,200a2.38,2.38,0,0,1-.63.71A1.49,1.49,0,0,1,65,201a1.29,1.29,0,0,1-.93-.35,2.28,2.28,0,0,1-.54-1.22l-.3-1.45a9.48,9.48,0,0,0-.31-1.16,1.51,1.51,0,0,0-.43-.65,1.22,1.22,0,0,0-.81-.25H60.41v3.34a3,3,0,0,0,.08.8.49.49,0,0,0,.31.33,2.51,2.51,0,0,0,.72.12v.29c-.42,0-1,0-1.75,0s-1.38,0-1.77,0v-.29a2.51,2.51,0,0,0,.72-.12A.51.51,0,0,0,59,200a2.59,2.59,0,0,0,.08-.8V192a3,3,0,0,0-.08-.8.49.49,0,0,0-.31-.33,2.51,2.51,0,0,0-.72-.12v-.29c.39,0,1,0,1.68,0h2.08a3.78,3.78,0,0,1,2.46.7,2.26,2.26,0,0,1,.86,1.82,2.78,2.78,0,0,1-.26,1.14,2.67,2.67,0,0,1-.86,1,3.57,3.57,0,0,1-1.57.62l.17,0a2.46,2.46,0,0,1,1.33.58,2.66,2.66,0,0,1,.61,1.34l.34,1.48a3.28,3.28,0,0,0,.29.93.47.47,0,0,0,.41.26.56.56,0,0,0,.39-.13,2.37,2.37,0,0,0,.37-.42Zm-5.74-9.16a.61.61,0,0,0-.3.36,2.61,2.61,0,0,0-.08.78v3.57h.92a2.29,2.29,0,0,0,1.88-.64,2.78,2.78,0,0,0,.51-1.77,2.65,2.65,0,0,0-.54-1.8,2.21,2.21,0,0,0-1.75-.61A1.64,1.64,0,0,0,60.77,190.88Z"/>
      <path d="M77.21,192.34c0,.49,0,.88,0,1.19h-.32a8.82,8.82,0,0,0-.28-1.66,1.35,1.35,0,0,0-.58-.8,2.5,2.5,0,0,0-1.27-.25h-.75v8.27a2.71,2.71,0,0,0,.11.89.64.64,0,0,0,.39.38,3.19,3.19,0,0,0,.9.13v.29c-.48,0-1.15,0-2,0s-1.6,0-2,0v-.29a3.32,3.32,0,0,0,.9-.13.66.66,0,0,0,.39-.38,2.67,2.67,0,0,0,.11-.89v-8.27H72a2.61,2.61,0,0,0-1.27.25,1.35,1.35,0,0,0-.58.8,9.92,9.92,0,0,0-.28,1.66h-.32c0-.31,0-.71,0-1.19a18.49,18.49,0,0,0-.1-1.86c.76,0,2.06,0,3.89,0s3.11,0,3.88,0C77.24,191.17,77.21,191.79,77.21,192.34Z"/>
      <path d="M88.7,190.49v.29a1.17,1.17,0,0,0-.54.37,4.52,4.52,0,0,0-.57.92l-2.17,4.52v2.64a3,3,0,0,0,.08.8.51.51,0,0,0,.31.33,2.51,2.51,0,0,0,.72.12v.29c-.42,0-1,0-1.75,0s-1.38,0-1.77,0v-.29a2.51,2.51,0,0,0,.72-.12A.51.51,0,0,0,84,200a3,3,0,0,0,.08-.8v-2.18l-2.8-5.45a2.64,2.64,0,0,0-.43-.65.57.57,0,0,0-.37-.17v-.31c.36,0,.76,0,1.21,0,.89,0,1.54,0,1.93,0v.31c-.64,0-1,.18-1,.55a1.27,1.27,0,0,0,.14.51l2.29,4.63,1.77-3.69a3,3,0,0,0,.37-1.25A.62.62,0,0,0,87,191a1.93,1.93,0,0,0-.91-.19v-.29c.52,0,1,0,1.59,0A8.56,8.56,0,0,0,88.7,190.49Z"/>
      <path d="M108.09,190.89a.51.51,0,0,0-.31.33,2.59,2.59,0,0,0-.08.8v7.2a3,3,0,0,0,.08.8.49.49,0,0,0,.31.33,2.51,2.51,0,0,0,.72.12v.29c-.42,0-1,0-1.75,0s-1.38,0-1.77,0v-.29a2.51,2.51,0,0,0,.72-.12.51.51,0,0,0,.31-.33,2.59,2.59,0,0,0,.08-.8v-7.79l-3.33,9.4h-.22l-3.48-9.43v7.67a2.87,2.87,0,0,0,.09.84.66.66,0,0,0,.35.4,2.37,2.37,0,0,0,.81.15v.29c-.33,0-.8,0-1.41,0s-1,0-1.28,0v-.29a2,2,0,0,0,.72-.15.64.64,0,0,0,.32-.41,3,3,0,0,0,.08-.84V192a3,3,0,0,0-.08-.8.49.49,0,0,0-.31-.33,2.51,2.51,0,0,0-.72-.12v-.29c.3,0,.73,0,1.28,0s.87,0,1.17,0l3,8.41,3-8.37h.65c.75,0,1.33,0,1.75,0v.29A4,4,0,0,0,108.09,190.89Z"/>
      <path d="M121.05,200.48v.29c-.37,0-.86,0-1.48,0-.79,0-1.38,0-1.77,0v-.29a2,2,0,0,0,.75-.14.41.41,0,0,0,.23-.4,2.06,2.06,0,0,0-.16-.68l-.84-2.38h-3.34l-.57,1.54a4.12,4.12,0,0,0-.28,1.19.72.72,0,0,0,.3.65,1.65,1.65,0,0,0,.9.22v.29c-.52,0-1.05,0-1.59,0a9.91,9.91,0,0,0-1,0v-.29c.46-.12.82-.54,1.09-1.26l3.24-8.8h.22l3.37,9.14C120.32,200.15,120.64,200.46,121.05,200.48Zm-3.38-3.89-1.55-4.34-1.57,4.34Z"/>
      <path d="M132.69,200a2.38,2.38,0,0,1-.63.71,1.49,1.49,0,0,1-.84.22,1.29,1.29,0,0,1-.93-.35,2.35,2.35,0,0,1-.55-1.22l-.3-1.45a9.48,9.48,0,0,0-.31-1.16,1.45,1.45,0,0,0-.44-.65,1.22,1.22,0,0,0-.81-.25h-1.31v3.34a3,3,0,0,0,.08.8.49.49,0,0,0,.31.33,2.51,2.51,0,0,0,.72.12v.29c-.42,0-1,0-1.75,0s-1.38,0-1.77,0v-.29a2.51,2.51,0,0,0,.72-.12.51.51,0,0,0,.31-.33,2.59,2.59,0,0,0,.08-.8V192a3,3,0,0,0-.08-.8.49.49,0,0,0-.31-.33,2.51,2.51,0,0,0-.72-.12v-.29c.39,0,1,0,1.68,0h2.08a3.78,3.78,0,0,1,2.46.7,2.23,2.23,0,0,1,.86,1.82,2.78,2.78,0,0,1-.26,1.14,2.59,2.59,0,0,1-.86,1,3.45,3.45,0,0,1-1.57.62l.16,0a2.46,2.46,0,0,1,1.33.58,2.66,2.66,0,0,1,.61,1.34l.34,1.48a3.28,3.28,0,0,0,.29.93.47.47,0,0,0,.41.26.56.56,0,0,0,.39-.13,2.37,2.37,0,0,0,.37-.42Zm-5.75-9.16a.61.61,0,0,0-.3.36,2.61,2.61,0,0,0-.08.78v3.57h.92a2.29,2.29,0,0,0,1.88-.64,2.78,2.78,0,0,0,.51-1.77,2.65,2.65,0,0,0-.54-1.8,2.21,2.21,0,0,0-1.75-.61A1.64,1.64,0,0,0,126.94,190.88Z"/>
      <path d="M143.38,192.34c0,.49,0,.88,0,1.19h-.32a8.06,8.06,0,0,0-.28-1.66,1.35,1.35,0,0,0-.58-.8,2.5,2.5,0,0,0-1.27-.25h-.74v8.27a2.71,2.71,0,0,0,.11.89.64.64,0,0,0,.39.38,3.19,3.19,0,0,0,.9.13v.29c-.48,0-1.15,0-2,0s-1.6,0-2,0v-.29a3.32,3.32,0,0,0,.9-.13.66.66,0,0,0,.39-.38,2.67,2.67,0,0,0,.11-.89v-8.27h-.74a2.61,2.61,0,0,0-1.27.25,1.35,1.35,0,0,0-.58.8,9.92,9.92,0,0,0-.28,1.66h-.32c0-.31,0-.71,0-1.19a18.49,18.49,0,0,0-.1-1.86c.76,0,2.06,0,3.89,0s3.11,0,3.88,0A18.49,18.49,0,0,0,143.38,192.34Z"/>
      <path d="M150.86,190.78a2.51,2.51,0,0,0-.72.12.51.51,0,0,0-.31.33,3,3,0,0,0-.08.8v7.2a3,3,0,0,0,.08.8.49.49,0,0,0,.31.33,2.51,2.51,0,0,0,.72.12v.29c-.42,0-1,0-1.75,0s-1.38,0-1.77,0v-.29a2.66,2.66,0,0,0,.73-.12.51.51,0,0,0,.31-.33,3,3,0,0,0,.08-.8V192a3,3,0,0,0-.08-.8.47.47,0,0,0-.31-.33,2.52,2.52,0,0,0-.73-.12v-.29c.39,0,1,0,1.77,0s1.32,0,1.75,0Z"/>
      <path d="M163.58,190.78a2,2,0,0,0-.72.15.64.64,0,0,0-.32.41,3.48,3.48,0,0,0-.08.84v8.67h-.32l-5.8-9.43v7.67a2.87,2.87,0,0,0,.09.84.66.66,0,0,0,.35.4,2.37,2.37,0,0,0,.81.15v.29c-.33,0-.8,0-1.41,0s-1,0-1.28,0v-.29a2,2,0,0,0,.72-.15.64.64,0,0,0,.32-.41,3.48,3.48,0,0,0,.08-.84V192a3,3,0,0,0-.08-.8.49.49,0,0,0-.31-.33,2.52,2.52,0,0,0-.73-.12v-.29c.3,0,.73,0,1.28,0s.77,0,1.08,0l4.87,7.9v-6.22a2.87,2.87,0,0,0-.09-.84.66.66,0,0,0-.35-.4,2.37,2.37,0,0,0-.81-.15v-.29c.33,0,.8,0,1.41,0s1,0,1.28,0v.3Z"/>
      <path d="M171.06,190.78a2.51,2.51,0,0,0-.72.12.51.51,0,0,0-.31.33,2.59,2.59,0,0,0-.08.8v7.2a3,3,0,0,0,.08.8.49.49,0,0,0,.31.33,2.51,2.51,0,0,0,.72.12v.29c-.42,0-1,0-1.75,0s-1.38,0-1.77,0v-.29a2.51,2.51,0,0,0,.72-.12.51.51,0,0,0,.31-.33,2.59,2.59,0,0,0,.08-.8V192a3,3,0,0,0-.08-.8.49.49,0,0,0-.31-.33,2.51,2.51,0,0,0-.72-.12v-.29c.39,0,1,0,1.77,0s1.32,0,1.75,0Z"/>
    </g>
    <g class="cls-1">
      <text class="cls-2" transform="translate(31.09 212.22) scale(0.95 1)">SH</text>
      <text class="cls-3" transform="translate(46.61 212.22) scale(0.95 1)">AK</text>
      <text class="cls-3" transform="translate(62.21 212.22) scale(0.95 1)">ING</text>
      <text class="cls-3" transform="translate(84.82 212.22) scale(0.95 1)"> </text>
      <text class="cls-3" transform="translate(90.12 212.22) scale(0.95 1)">U</text>
      <text class="cls-3" transform="translate(98.69 212.22) scale(0.95 1)">P MA</text>
      <text class="cls-2" transform="translate(128.64 212.22) scale(0.95 1)">R</text>
      <text class="cls-3" transform="translate(136.24 212.22) scale(0.95 1)">K</text>
      <text class="cls-2" transform="translate(143.51 212.22) scale(0.95 1)">ETIN</text>
      <text class="cls-4" transform="translate(171.93 212.22) scale(0.95 1)">G</text>
    </g>
  </g>
  <g>
    <path class="cls-5" d="M131.08,101.48l-12.62,34-12.91-34.18c-1.28.11-3,.17-5,.17-2.35,0-4.17-.06-5.45-.17v1.18a10.44,10.44,0,0,1,3.08.46,7.33,7.33,0,0,1,3,2.13L116,143.32h1l14.14-38.07v31.53a10.37,10.37,0,0,1-.36,3.22,2.19,2.19,0,0,1-1.31,1.38,10.25,10.25,0,0,1-3.07.46V143c1.65-.12,4.15-.17,7.52-.17,3.14,0,5.62.06,7.46.17v-1.18a10.38,10.38,0,0,1-3.08-.46,2.21,2.21,0,0,1-1.32-1.38,10.42,10.42,0,0,1-.36-3.22V107.55a10.37,10.37,0,0,1,.36-3.22,2.21,2.21,0,0,1,1.32-1.38,10.38,10.38,0,0,1,3.08-.46v-1.18c-1.84.11-4.32.17-7.46.17Z"/>
    <path class="cls-5" d="M150.13,99.3c-1.17-.9-2.26-1.45-2.44-1.21s.61,1.16,1.78,2.07,2.26,1.45,2.44,1.21S151.3,100.21,150.13,99.3Z"/>
    <path class="cls-5" d="M81,101.31l-8.86.17-1.43,0c-1.73,0-3.64-.07-5.75-.2v1.18A10.38,10.38,0,0,1,68,103a2.21,2.21,0,0,1,1.32,1.38,10.42,10.42,0,0,1,.36,3.22v29.23a10.37,10.37,0,0,1-.36,3.22A2.21,2.21,0,0,1,68,141.38a10.44,10.44,0,0,1-3.08.46V143c1.64-.12,4.07-.17,7.29-.17.92,0,2.39,0,4.4.09s3.29.09,3.83.09a23.51,23.51,0,0,0,11.45-2.63,17.66,17.66,0,0,0,7.3-7.45,24,24,0,0,0,2.51-11.24q0-10-5.18-15.19T81,101.31Zm13.41,31.74a12.05,12.05,0,0,1-5,6.63C87,141.19,83.72,142,79.55,142a7.15,7.15,0,0,1-2.8-.42,2.33,2.33,0,0,1-1.28-1.47,11.12,11.12,0,0,1-.33-3.16V107.44a11,11,0,0,1,.34-3.17,2.32,2.32,0,0,1,1.26-1.48,6.91,6.91,0,0,1,2.75-.42q6,0,9.6,2.11a11.93,11.93,0,0,1,5.15,6.39,32.53,32.53,0,0,1,1.58,11.06A35.75,35.75,0,0,1,94.37,133.05Z"/>
    <path class="cls-5" d="M182.27,123.25l3-1.44A3,3,0,0,0,182.27,123.25Z"/>
    <path d="M198,115.36a9.62,9.62,0,0,0-6.92-1.76c-2,.36-3.88,1-5.84,1.48a1.45,1.45,0,0,1-1.15-.16,5.1,5.1,0,0,0-3.78-1.7c-.57,0-1.14-.1-1.71-.16.28-1.75.1-2-1.46-2.58a2.57,2.57,0,0,1-1.1-.53c-2.62-1.75-4.64-3.11-4.2-4.08.62-1.39-2.23-1.19-3.91-.36a8.72,8.72,0,0,1,5,4.77c-1.06.34-1.57,0-1.67-1.07a2.6,2.6,0,0,0-.61-1.17,6.82,6.82,0,0,0-3.72-2.16c-.37-.1-.73-.22-1.09-.35l-.59-.2.08-.29.84.06.67.05a1.34,1.34,0,0,1,.67-.68,8.77,8.77,0,0,0,2.27-1.36,4.09,4.09,0,0,1,2.33-1.43c1.05-.23,2.12-.37,3.17-.63a25.89,25.89,0,0,0,5-1.37,21.65,21.65,0,0,1,8.8-2.26,11,11,0,0,0,6.7-2.3,4.56,4.56,0,0,0,.34-7.17,8.43,8.43,0,0,0-3.56-1.78c-2.89-.66-6.51,1.52-8,4.61-.35.71-.62,1.47-.94,2.2a6,6,0,0,1-5.26,3.85,31,31,0,0,1-3.34.08,17.5,17.5,0,0,0-7.41,1.44c-1.33.58-2.71,1.06-4.08,1.57-5.34,2-10.09.54-13.91-3.22a33.11,33.11,0,0,1-8.09-12.27A58.88,58.88,0,0,1,138,70.3a5,5,0,0,1,.49-2.13c.58-1.51,1.33-3,1.85-4.49.37-1.1.41-2.31.73-3.43.25-.84.85-1.6,1-2.44a40.32,40.32,0,0,1,1.63-6.31,6,6,0,0,1,.64-1.35,3.16,3.16,0,0,0-.35-4.34,4.18,4.18,0,0,0-5.28-.32,2,2,0,0,0-.84,2.53,14.61,14.61,0,0,0,1.52,2.25c.15,1.81-1.16,3.13-2.2,4.57-.32.46-.65.9-1,1.36a2.06,2.06,0,0,0-.14,2.23,3.5,3.5,0,0,1,.19,2.38c-.61,1.79-1.47,3.51-2.24,5.25-.55,1.27-1.26,1.75-2.62,1.44-2.73-.62-5.43-1.36-8.28-2.09,1-.49.63-.9.13-1.21-.67-.41-1.43-.67-2.08-1.11-1.83-1.24-3.17-2.23-5-3.51-.37-.26-.57.34-.58.79v.2c.09.75.29,1.49.42,2.12-1-.4-1.24-.81-.77-2,.17-.43.31-.86.46-1.29,0,0,0-.07,0-.1v0a27.49,27.49,0,0,0,1.07-11.82,7.34,7.34,0,0,0-1.69-4.17,24.22,24.22,0,0,1-2-2.4,4,4,0,0,0-2.44-1.63c-.33-.08-.9-.32-.89-.45,0-.37,1.05-.42.53-1.15l-.79-.54.66-.13c1.35-.29,1.44-.44,1.43-1.82a9.29,9.29,0,0,0-1.59-5A23.69,23.69,0,0,1,107,24.31a3.71,3.71,0,0,0-1.31-1.69,2.92,2.92,0,0,1-1.37-2.42,2.55,2.55,0,0,0-1.51-2.2c-1.61-1-3.15-.25-4.67.13-1.07.26-1.32,1.13-.65,2a10.82,10.82,0,0,0,1.81,1.7,7.54,7.54,0,0,1,2.42,3.62c-1.33-1.42-2.84-3-4.32-4.64a4.13,4.13,0,0,1-.4-5,4.83,4.83,0,0,0,.57-4,2.48,2.48,0,0,0-3.77-1.61c-2.13,1.12-2.83,4.47-1.18,6.22a13.78,13.78,0,0,1,2.36,4.12,69.69,69.69,0,0,0,3.58,7.5,79.21,79.21,0,0,0,4.73,6.47A5.25,5.25,0,0,1,104.37,39a11.58,11.58,0,0,0-.19,1.44c-.88,8.35-2.7,16.39-7.52,23.48a2,2,0,0,1-1.51,1A56.12,56.12,0,0,0,55.56,92.13a56.58,56.58,0,0,0,13,72.56c12.84,10.43,27.61,14.43,44,12.22A56.5,56.5,0,0,0,159.71,133a4,4,0,0,1,3.47-3.59,218.91,218.91,0,0,0,25.73-7.75,16.53,16.53,0,0,1,8.14-1.17,5.41,5.41,0,0,0,1.45,0,1.66,1.66,0,0,0,1.6-2A4,4,0,0,0,198,115.36Zm-7.3-27.18c.64-.37,1.34-.36,1.55,0s-.12,1-.76,1.36-1.34.36-1.56,0S190.09,88.55,190.73,88.18ZM140,45.87c.31-.17.65-.17.75,0s-.06.48-.37.66-.65.17-.75,0S139.65,46.05,140,45.87ZM94.76,12.32c-.46.26-1,.26-1.11,0s.09-.7.55-1,1-.26,1.11,0S95.22,12.05,94.76,12.32Zm8.53,14.19c-.25-.48-.37-1-.63-1.51-.43-.79-1-1.51-1.37-2.32a2.57,2.57,0,0,1,.27-2.76c1,1,1.8,1.84,1.77,3.38A19.32,19.32,0,0,0,104,27C103.67,26.81,103.39,26.71,103.29,26.51Zm7.85,35.12c.24-.14.62.08.85.48s.23.84,0,1-.61-.08-.84-.48S110.91,61.76,111.14,61.63ZM99.19,133a17.66,17.66,0,0,1-7.3,7.45A23.51,23.51,0,0,1,80.44,143c-.54,0-1.81,0-3.83-.09s-3.48-.09-4.4-.09c-3.22,0-5.65.05-7.29.17v-1.18a10.44,10.44,0,0,0,3.08-.46A2.21,2.21,0,0,0,69.32,140a10.37,10.37,0,0,0,.36-3.22V107.55a10.42,10.42,0,0,0-.36-3.22A2.21,2.21,0,0,0,68,103a10.38,10.38,0,0,0-3.08-.46v-1.18c2.11.13,4,.2,5.75.2l1.43,0,8.86-.17q10.38,0,15.56,5.21t5.18,15.19A24,24,0,0,1,99.19,133Zm42.13-30.46a10.38,10.38,0,0,0-3.08.46,2.21,2.21,0,0,0-1.32,1.38,10.37,10.37,0,0,0-.36,3.22v29.23a10.42,10.42,0,0,0,.36,3.22,2.21,2.21,0,0,0,1.32,1.38,10.38,10.38,0,0,0,3.08.46V143c-1.84-.11-4.32-.17-7.46-.17-3.37,0-5.87.05-7.52.17v-1.18a10.25,10.25,0,0,0,3.07-.46,2.19,2.19,0,0,0,1.31-1.38,10.37,10.37,0,0,0,.36-3.22V105.25l-14.14,38.07h-1l-14.8-38.24a7.33,7.33,0,0,0-3-2.13,10.44,10.44,0,0,0-3.08-.46v-1.18c1.28.11,3.1.17,5.45.17,2.07,0,3.74-.06,5-.17l12.91,34.18,12.62-34h2.78c3.14,0,5.62-.06,7.46-.17Zm10.59-1.12c-.18.24-1.28-.31-2.44-1.21s-2-1.84-1.78-2.07,1.27.31,2.44,1.21S152.09,101.14,151.91,101.37Zm28,14.34a4,4,0,0,1-1.3-.59,1.69,1.69,0,0,1-.93-.05c-.58-.17-1-.49-.93-.72s.59-.28,1.17-.12a1.9,1.9,0,0,1,.82.46,3.84,3.84,0,0,1,1.41.19c.9.26,1.58.66,1.51.89S180.81,116,179.91,115.71Zm2.36,7.54a3,3,0,0,1,3-1.44Z"/>
    <path d="M89.09,104.48q-3.57-2.12-9.6-2.11a6.91,6.91,0,0,0-2.75.42,2.32,2.32,0,0,0-1.26,1.48,11,11,0,0,0-.34,3.17V136.9a11.12,11.12,0,0,0,.33,3.16,2.33,2.33,0,0,0,1.28,1.47,7.15,7.15,0,0,0,2.8.42c4.17,0,7.43-.76,9.81-2.27a12.05,12.05,0,0,0,5-6.63,35.75,35.75,0,0,0,1.45-11.12,32.53,32.53,0,0,0-1.58-11.06A11.93,11.93,0,0,0,89.09,104.48Z"/>
    <path d="M208,113.2a3,3,0,0,0-3.26.17l.49.31-.28.46a12.57,12.57,0,0,1-1.25-.51c-.38-.22-.69-.66-1.09-.77a18.76,18.76,0,0,0-7.81-.66,6.27,6.27,0,0,0-1.6.75l.08.31,1,.19a9.64,9.64,0,0,1,2.52.54c1.82,1,3.58,1.85,5.64.93a4.28,4.28,0,0,0,5.66.71A1.43,1.43,0,0,0,208,113.2Z"/>
    <path d="M214.05,115.43c-.75,0-1.48.26-1.55,1.18-.06.75,1.14,1.57,2.27,1.55.64-.07,1.25-.35,1.29-1.2S215.06,115.36,214.05,115.43Z"/>
    <path d="M219.92,113.94c-.56,0-1.1.2-1.15.88s.84,1.16,1.69,1.15a.92.92,0,0,0,.95-.9C221.44,114.47,220.67,113.89,219.92,113.94Z"/>
    <path d="M142.93,38.86c.17,0,.33.39.5.19.44-.46.06-1.15-.14-1.63a2.16,2.16,0,0,0-2-1.5C141.22,37.42,141.92,38.06,142.93,38.86Z"/>
    <path class="cls-5" d="M101.56,19.92a2.57,2.57,0,0,0-.27,2.76c.39.81.94,1.53,1.37,2.32.26.48.38,1,.63,1.51.1.2.38.3.68.52a19.32,19.32,0,0,1-.64-3.73C103.36,21.76,102.53,20.9,101.56,19.92Z"/>
    <path d="M115.74,59.36l0-.08v0S115.75,59.33,115.74,59.36Z"/>
    <path d="M103.9,13c.35.5.81.37,1.09-.11a1.92,1.92,0,0,0,.33-1A5,5,0,0,0,103.13,8a.88.88,0,0,1-.44.54c-.33.19-.7.19-.81,0s.07-.51.4-.71a1.59,1.59,0,0,1,.32-.12,1.19,1.19,0,0,0-1.06,0c-.53.39-.31,1.15-.1,1.53A43.58,43.58,0,0,0,103.9,13Z"/>
  </g>
</svg>
