<svg enable-background="new 0 0 384.97 384.97" height="512" viewBox="0 0 384.97 384.97" width="512" xmlns="http://www.w3.org/2000/svg">
<div class='change-my-color'>
<path d="m12.03 120.303h360.909c6.641 0 12.03-5.39 12.03-12.03 0-6.641-5.39-12.03-12.03-12.03h-360.909c-6.641 0-12.03 5.39-12.03 12.03s5.39 12.03 12.03 12.03z"/><path d="m372.939 180.455h-360.909c-6.641 0-12.03 5.39-12.03 12.03s5.39 12.03 12.03 12.03h360.909c6.641 0 12.03-5.39 12.03-12.03s-5.389-12.03-12.03-12.03z"/><path d="m372.939 264.667h-240.606c-6.641 0-12.03 5.39-12.03 12.03 0 6.641 5.39 12.03 12.03 12.03h240.606c6.641 0 12.03-5.39 12.03-12.03.001-6.641-5.389-12.03-12.03-12.03z"/></div></svg>